<?xml version="1.0" encoding="UTF-8" standalone="no" ?>
<!DOCTYPE svg PUBLIC "-//W3C//DTD SVG 1.1//EN" "http://www.w3.org/Graphics/SVG/1.1/DTD/svg11.dtd">
<svg xmlns="http://www.w3.org/2000/svg" xmlns:xlink="http://www.w3.org/1999/xlink" version="1.1" width="141" height="141" viewBox="6 63 141 141" xml:space="preserve">
<desc>Created with Fabric.js 4.6.0</desc>
<defs>
</defs>
<g transform="matrix(1 0 0 1 76.52 134.01)" id="PUPg6l7e294aTElAkZrWD"  >
<path style="stroke: rgb(0,0,0); stroke-width: 7; stroke-dasharray: none; stroke-linecap: butt; stroke-dashoffset: 0; stroke-linejoin: miter; stroke-miterlimit: 4; fill: rgb(255,255,255); fill-rule: nonzero; opacity: 1;" vector-effect="non-scaling-stroke"  transform=" translate(-61.13, -61.13)" d="M 61.1336 0 C 94.87935 0 122.2672 27.38785 122.2672 61.1336 C 122.2672 94.87935 94.87935 122.2672 61.1336 122.2672 C 27.38785 122.2672 0 94.87935 0 61.1336 C 0 27.38785 27.38785 0 61.1336 0 z" stroke-linecap="round" />
</g>
<g transform="matrix(1 0 0 1 54.45 149.38)" id="YneNl2NlY5P0b9GMNk_5F"  >
<path style="stroke: rgb(123,59,2); stroke-width: 4; stroke-dasharray: none; stroke-linecap: butt; stroke-dashoffset: 0; stroke-linejoin: miter; stroke-miterlimit: 4; fill: rgb(177,132,91); fill-rule: nonzero; opacity: 1;" vector-effect="non-scaling-stroke"  transform=" translate(-14.37, -14.37)" d="M 14.37247 0 C 22.30607 0 28.74494 6.43887 28.74494 14.37247 C 28.74494 22.30607 22.30607 28.74494 14.37247 28.74494 C 6.43887 28.74494 0 22.30607 0 14.37247 C 0 6.43887 6.43887 0 14.37247 0 z" stroke-linecap="round" />
</g>
<g transform="matrix(1 0 0 1 99.67 149.38)" id="qSwMutEVwF2mvog0FbuOd"  >
<path style="stroke: rgb(0,0,0); stroke-width: 4; stroke-dasharray: none; stroke-linecap: butt; stroke-dashoffset: 0; stroke-linejoin: miter; stroke-miterlimit: 4; fill: rgb(177,132,91); fill-rule: nonzero; opacity: 1;" vector-effect="non-scaling-stroke"  transform=" translate(-14.37, -14.37)" d="M 14.37247 0 C 22.30607 0 28.74494 6.43887 28.74494 14.37247 C 28.74494 22.30607 22.30607 28.74494 14.37247 28.74494 C 6.43887 28.74494 0 22.30607 0 14.37247 C 0 6.43887 6.43887 0 14.37247 0 z" stroke-linecap="round" />
</g>
<g transform="matrix(1 0 0 1 76.52 109.87)" id="3vYRk0-ZB9QidMYWHwFcw"  >
<path style="stroke: rgb(169,166,162); stroke-width: 4; stroke-dasharray: none; stroke-linecap: butt; stroke-dashoffset: 0; stroke-linejoin: miter; stroke-miterlimit: 4; fill: rgb(177,132,91); fill-rule: nonzero; opacity: 1;" vector-effect="non-scaling-stroke"  transform=" translate(-14.37, -14.37)" d="M 14.37247 0 C 22.30607 0 28.74494 6.43887 28.74494 14.37247 C 28.74494 22.30607 22.30607 28.74494 14.37247 28.74494 C 6.43887 28.74494 0 22.30607 0 14.37247 C 0 6.43887 6.43887 0 14.37247 0 z" stroke-linecap="round" />
</g>
</svg>