<?xml version="1.0" standalone="no"?>
<!DOCTYPE svg PUBLIC "-//W3C//DTD SVG 20010904//EN"
 "http://www.w3.org/TR/2001/REC-SVG-20010904/DTD/svg10.dtd">
<svg version="1.0" xmlns="http://www.w3.org/2000/svg"
 width="700.000000pt" height="700.000000pt" viewBox="0 0 700.000000 700.000000"
 preserveAspectRatio="xMidYMid meet">
<metadata>
Created by potrace 1.14, written by Peter Selinger 2001-2017
</metadata>
<g transform="translate(0.000000,700.000000) scale(0.100000,-0.100000)"
fill="#000000" stroke="none">
<path d="M3263 6540 c-220 -18 -450 -62 -661 -126 -341 -103 -700 -291 -1002
-524 -123 -95 -405 -376 -509 -508 -320 -405 -534 -885 -620 -1393 -33 -194
-44 -367 -38 -604 8 -297 40 -505 118 -771 332 -1136 1294 -1986 2459 -2173
1339 -216 2654 466 3250 1684 235 481 333 958 308 1510 -48 1090 -701 2090
-1687 2585 -324 162 -645 260 -1002 305 -149 19 -475 27 -616 15z m662 -100
c659 -99 1234 -388 1695 -850 872 -874 1118 -2178 627 -3314 -386 -891 -1215
-1557 -2165 -1740 -227 -44 -307 -51 -572 -51 -339 0 -538 26 -840 111 -777
219 -1464 786 -1834 1512 -225 445 -326 866 -326 1367 0 556 133 1046 411
1521 215 368 549 722 909 964 414 279 898 451 1401 500 157 15 534 4 694 -20z"/>
<path d="M3382 5400 c-292 -53 -521 -266 -594 -553 -16 -64 -19 -102 -16 -201
8 -203 68 -344 208 -487 86 -87 179 -145 295 -186 73 -25 93 -27 225 -27 131
0 153 2 225 27 117 39 199 91 295 187 144 143 213 308 213 510 0 128 -20 216
-73 325 -91 189 -272 337 -475 390 -75 20 -233 27 -303 15z"/>
<path d="M2283 3440 c-85 -16 -209 -66 -282 -114 -81 -54 -183 -160 -230 -239
-92 -156 -124 -364 -82 -540 65 -273 275 -486 545 -552 88 -21 249 -22 338 -1
247 57 451 245 534 491 38 115 45 277 15 395 -65 265 -270 475 -530 545 -70
19 -239 27 -308 15z"/>
<path d="M4509 3436 c-245 -52 -452 -223 -543 -451 -43 -109 -61 -240 -47
-351 47 -382 352 -656 731 -657 336 -1 628 225 716 553 26 98 24 272 -5 375
-71 253 -275 455 -526 521 -84 22 -245 27 -326 10z"/>
</g>
</svg>
